<?xml version="1.0" encoding="UTF-8"?>
<svg version="1.1" xmlns="http://www.w3.org/2000/svg" width="72" height="72">
<path d="M0 0 C2.85245714 1.57320632 5.1107764 3.33865893 7 6 C8.94681201 13.28430553 5.58095045 17.78156019 2 24 C-0.36414247 27.89908049 -2.84289106 31.70827798 -5.375 35.5 C-6.0354834 36.49813721 -6.6959668 37.49627441 -7.37646484 38.5246582 C-8.671 40.47984939 -9.96793178 42.43345647 -11.26757812 44.38525391 C-12.72353924 46.58273749 -14.15898887 48.79038621 -15.578125 51.01171875 C-16.25359375 52.05972656 -16.9290625 53.10773437 -17.625 54.1875 C-18.17414062 55.04730469 -18.72328125 55.90710937 -19.2890625 56.79296875 C-21.70157718 59.90500253 -24.47449852 62.23724926 -28 64 C-33.10497207 64.38528091 -35.85551436 63.98864325 -40 61 C-41.78930664 58.73510742 -41.78930664 58.73510742 -43.41015625 56.10546875 C-44.00763672 55.14962891 -44.60511719 54.19378906 -45.22070312 53.20898438 C-45.82849609 52.21189453 -46.43628906 51.21480469 -47.0625 50.1875 C-48.28216357 48.22241506 -49.50220537 46.25756481 -50.72265625 44.29296875 C-51.28944092 43.36790527 -51.85622559 42.4428418 -52.44018555 41.48974609 C-53.70221379 39.47532067 -55.01412389 37.54322996 -56.3984375 35.61328125 C-58.95560228 31.44073677 -58.86664656 27.73204361 -58 23 C-56.69249868 20.00540021 -55.67239303 19.17131934 -53 17 C-48.90924069 15.52161471 -46.09716235 15.58874387 -42.01953125 17.1171875 C-38.41870527 19.36246321 -36.8605525 21.60290721 -34.625 25.1875 C-33.93664062 26.27417969 -33.24828125 27.36085938 -32.5390625 28.48046875 C-32.03117187 29.31191406 -31.52328125 30.14335938 -31 31 C-26.72401074 26.00130833 -23.56021835 20.42143125 -20.2421875 14.76953125 C-10.24741589 -1.93521343 -10.24741589 -1.93521343 0 0 Z " fill="#E34133" transform="translate(62,4)"/>
<path d="M0 0 C2.84653577 1.5868619 5.10927418 3.33654276 7 6 C8.68231227 11.93615902 7.08396789 14.90363802 4.30078125 20.14453125 C-0.66780851 28.70741998 -6.40885816 36.8369788 -12 45 C-13.33332095 42.3333581 -12.67102033 40.83319697 -12 38 C-11.34 38 -10.68 38 -10 38 C-10 37.01 -10 36.02 -10 35 C-9.34 35 -8.68 35 -8 35 C-8 34.01 -8 33.02 -8 32 C-7.01 32 -6.02 32 -5 32 C-4.67 30.02 -4.34 28.04 -4 26 C-3.34 26 -2.68 26 -2 26 C-1.8453125 24.576875 -1.8453125 24.576875 -1.6875 23.125 C-1 20 -1 20 2 18 C2.6644218 15.01349195 2.6644218 15.01349195 3 12 C3.33 11.34 3.66 10.68 4 10 C4.0396713 8.33380554 4.04384447 6.66608987 4 5 C-0.14208392 3.42206327 -3.56190648 2.42111824 -8 3 C-10.25065102 4.91666921 -10.25065102 4.91666921 -12 7 C-12.66 7 -13.32 7 -14 7 C-11.36878461 0.64122948 -6.78875866 -1.55207679 0 0 Z " fill="#842725" transform="translate(62,4)"/>
<path d="M0 0 C1.2065625 0.0309375 1.2065625 0.0309375 2.4375 0.0625 C0.6875 5.8125 0.6875 5.8125 -1.5625 8.0625 C-1.58625926 10.0556567 -1.58625926 10.0556567 -1.1875 12.1875 C-0.878125 14.105625 -0.878125 14.105625 -0.5625 16.0625 C-1.5525 15.7325 -2.5425 15.4025 -3.5625 15.0625 C-3.5625 15.7225 -3.5625 16.3825 -3.5625 17.0625 C-6.0375 16.0725 -6.0375 16.0725 -8.5625 15.0625 C-8.84577301 11.35477108 -9.02123498 7.75968548 -8.5625 4.0625 C-6.125 1.9375 -6.125 1.9375 -3.5625 1.0625 C-2.5625 0.0625 -2.5625 0.0625 0 0 Z " fill="#EA452F" transform="translate(14.5625,21.9375)"/>
<path d="M0 0 C0.66 0.33 1.32 0.66 2 1 C1.67 1.99 1.34 2.98 1 4 C0.34 4 -0.32 4 -1 4 C-1 3.34 -1 2.68 -1 2 C-3.49552484 2.78130071 -3.49552484 2.78130071 -6 4 C-6.33 4.99 -6.66 5.98 -7 7 C-7.99 6.67 -8.98 6.34 -10 6 C-10 6.66 -10 7.32 -10 8 C-11.875 10.125 -11.875 10.125 -14 12 C-14.66 12 -15.32 12 -16 12 C-15.67 13.65 -15.34 15.3 -15 17 C-16.65 17 -18.3 17 -20 17 C-19.1000662 15.17913395 -18.17944686 13.36847967 -17.25 11.5625 C-16.73953125 10.55316406 -16.2290625 9.54382813 -15.703125 8.50390625 C-14 6 -14 6 -11.8671875 5.27734375 C-11.25101563 5.18582031 -10.63484375 5.09429688 -10 5 C-8.8499169 3.03327085 -8.8499169 3.03327085 -8 1 C-5.26094655 -0.36952673 -3.02912668 -0.12621361 0 0 Z " fill="#D83031" transform="translate(60,6)"/>
<path d="M0 0 C0.99 0.99 1.98 1.98 3 3 C3.4125 2.484375 3.825 1.96875 4.25 1.4375 C4.8275 0.963125 5.405 0.48875 6 0 C8.1875 0.3125 8.1875 0.3125 10 1 C10.33 3.31 10.66 5.62 11 8 C7.7 8 4.4 8 1 8 C1 6.68 1 5.36 1 4 C0.01 3.67 -0.98 3.34 -2 3 C-2 2.34 -2 1.68 -2 1 C-1.34 0.67 -0.68 0.34 0 0 Z " fill="#F95833" transform="translate(24,58)"/>
<path d="M0 0 C3 1.625 3 1.625 5 4 C5.3125 7.25 5.3125 7.25 5 10 C4.67 10 4.34 10 4 10 C4 8.35 4 6.7 4 5 C-0.14208392 3.42206327 -3.56190648 2.42111824 -8 3 C-10.25065102 4.91666921 -10.25065102 4.91666921 -12 7 C-12.66 7 -13.32 7 -14 7 C-11.30309176 0.48247175 -6.88283927 -1.21301524 0 0 Z " fill="#9E2930" transform="translate(62,4)"/>
<path d="M0 0 C2.0625 0.4375 2.0625 0.4375 4 1 C3.67 1.99 3.34 2.98 3 4 C2.34 4 1.68 4 1 4 C1.0825 4.928125 1.165 5.85625 1.25 6.8125 C1 10 1 10 -1 11.875 C-1.99 12.431875 -1.99 12.431875 -3 13 C-3.66 11.68 -4.32 10.36 -5 9 C-4.34 8.236875 -3.68 7.47375 -3 6.6875 C-0.70149462 4.15722061 -0.70149462 4.15722061 -1 1 C-0.67 0.67 -0.34 0.34 0 0 Z " fill="#EF5233" transform="translate(41,50)"/>
<path d="M0 0 C0.66 0.33 1.32 0.66 2 1 C1.649375 1.495 1.29875 1.99 0.9375 2.5 C-0.46011601 6.22697603 0.34967141 9.09802848 1 13 C-1.5 11.3125 -1.5 11.3125 -4 9 C-4.3125 6.25 -4.3125 6.25 -4 4 C-3.34 4 -2.68 4 -2 4 C-2 3.01 -2 2.02 -2 1 C-1.34 0.67 -0.68 0.34 0 0 Z " fill="#EE403A" transform="translate(13,25)"/>
<path d="M0 0 C0 0.99 0 1.98 0 3 C-4.82971296 7.32132212 -7.49790463 8.34832654 -14 8 C-14.66 7.34 -15.32 6.68 -16 6 C-12.7 6 -9.4 6 -6 6 C-6 5.01 -6 4.02 -6 3 C-5.195625 2.690625 -4.39125 2.38125 -3.5625 2.0625 C-1.10919595 1.23664655 -1.10919595 1.23664655 0 0 Z " fill="#5B2C22" transform="translate(41,60)"/>
<path d="M0 0 C0.99 0.33 1.98 0.66 3 1 C3.33 3.64 3.66 6.28 4 9 C1.03 8.505 1.03 8.505 -2 8 C-2.33 7.01 -2.66 6.02 -3 5 C-1.5625 2.3125 -1.5625 2.3125 0 0 Z " fill="#D83130" transform="translate(63,8)"/>
<path d="M0 0 C1.25541557 3.76624671 0.37061958 5.37188934 -1 9 C-1.78375 8.979375 -2.5675 8.95875 -3.375 8.9375 C-5.98114961 8.81315937 -5.98114961 8.81315937 -8 10 C-8.66 8.35 -9.32 6.7 -10 5 C-9.01 4.67 -8.02 4.34 -7 4 C-6.01 4.99 -5.02 5.98 -4 7 C-2.68 4.69 -1.36 2.38 0 0 Z " fill="#9F362E" transform="translate(36,28)"/>
<path d="M0 0 C0.33 0.66 0.66 1.32 1 2 C0.02501855 3.5027237 -0.95509389 5.00211963 -1.9375 6.5 C-2.75541016 7.75296875 -2.75541016 7.75296875 -3.58984375 9.03125 C-4.05519531 9.6809375 -4.52054688 10.330625 -5 11 C-5.33 11 -5.66 11 -6 11 C-6 9.02 -6 7.04 -6 5 C-5.34 5 -4.68 5 -4 5 C-4 4.01 -4 3.02 -4 2 C-2.68 1.34 -1.36 0.68 0 0 Z " fill="#772D22" transform="translate(48,49)"/>
<path d="M0 0 C0.33 0.66 0.66 1.32 1 2 C0.0625 4.625 0.0625 4.625 -1 7 C-1.66 7 -2.32 7 -3 7 C-2.67 8.65 -2.34 10.3 -2 12 C-3.65 12 -5.3 12 -7 12 C-6.02296079 10.1863523 -5.04330895 8.37411183 -4.0625 6.5625 C-3.51722656 5.55316406 -2.97195312 4.54382813 -2.41015625 3.50390625 C-1 1 -1 1 0 0 Z " fill="#B73937" transform="translate(47,11)"/>
<path d="M0 0 C3.63 0.33 7.26 0.66 11 1 C9.3125 3.0625 9.3125 3.0625 7 5 C4.25573284 4.80398092 2.44789508 4.22394754 0 3 C0 2.01 0 1.02 0 0 Z " fill="#F1513A" transform="translate(13,47)"/>
<path d="M0 0 C1.98 0.66 3.96 1.32 6 2 C6.66 5.3 7.32 8.6 8 12 C4.78119883 8.2064129 2.3836813 4.34170523 0 0 Z " fill="#9C4431" transform="translate(13,50)"/>
<path d="M0 0 C0.66 0 1.32 0 2 0 C1.9375 2.1875 1.9375 2.1875 1 5 C-1.1717219 6.93157957 -3.52601047 8.48201687 -6 10 C-4.34643078 6.41726669 -2.32019297 3.19026533 0 0 Z " fill="#F64836" transform="translate(31,38)"/>
<path d="M0 0 C1.32 0.33 2.64 0.66 4 1 C3.9071875 2.1446875 3.9071875 2.1446875 3.8125 3.3125 C3.74101915 6.04525312 3.74101915 6.04525312 5.5 7.8125 C5.995 8.204375 6.49 8.59625 7 9 C6.67 9.66 6.34 10.32 6 11 C5.01 10.67 4.02 10.34 3 10 C2.05078125 7.71484375 2.05078125 7.71484375 1.3125 4.9375 C1.06113281 4.01839844 0.80976563 3.09929688 0.55078125 2.15234375 C0.36902344 1.44207031 0.18726562 0.73179688 0 0 Z " fill="#C84E36" transform="translate(19,55)"/>
<path d="M0 0 C0.66 0.33 1.32 0.66 2 1 C3.19150921 5.36886712 3.021829 7.95634201 1 12 C0.34 11.67 -0.32 11.34 -1 11 C-0.67 7.37 -0.34 3.74 0 0 Z " fill="#691E22" transform="translate(67,9)"/>
<path d="M0 0 C0.66 0 1.32 0 2 0 C0.14285714 7.57142857 0.14285714 7.57142857 -3 10 C-2.67 7.69 -2.34 5.38 -2 3 C-1.34 3 -0.68 3 0 3 C0 2.01 0 1.02 0 0 Z " fill="#872F22" transform="translate(52,39)"/>
<path d="M0 0 C1.134375 0.020625 2.26875 0.04125 3.4375 0.0625 C2.839375 0.330625 2.24125 0.59875 1.625 0.875 C-0.60577908 1.9518979 -0.60577908 1.9518979 -2.1875 3.6875 C-2.64125 4.14125 -3.095 4.595 -3.5625 5.0625 C-4.2225 5.0625 -4.8825 5.0625 -5.5625 5.0625 C-4.43693182 0.07784091 -4.43693182 0.07784091 0 0 Z " fill="#C84A3B" transform="translate(12.5625,20.9375)"/>
<path d="M0 0 C0.33 1.32 0.66 2.64 1 4 C0.34 4 -0.32 4 -1 4 C-1.33 5.98 -1.66 7.96 -2 10 C-2.66 10 -3.32 10 -4 10 C-3.52449439 8.51965236 -3.04448784 7.04074979 -2.5625 5.5625 C-2.29566406 4.73878906 -2.02882812 3.91507813 -1.75390625 3.06640625 C-1 1 -1 1 0 0 Z " fill="#DE3B34" transform="translate(59,26)"/>
<path d="M0 0 C0.66 0.33 1.32 0.66 2 1 C-1.625 5.875 -1.625 5.875 -5 7 C-3.70700306 4.11562221 -2.34058637 2.12780579 0 0 Z " fill="#DD322D" transform="translate(27,41)"/>
<path d="M0 0 C0.33 0.66 0.66 1.32 1 2 C-0.98 4.97 -0.98 4.97 -3 8 C-4.33332095 5.3333581 -3.67102033 3.83319697 -3 1 C-2.01 0.67 -1.02 0.34 0 0 Z " fill="#541D1A" transform="translate(57,35)"/>
</svg>
